<svg id="svg" xmlns="http://www.w3.org/2000/svg" xmlns:xlink="http://www.w3.org/1999/xlink" width="400" height="271.18644067796606" viewBox="0, 0, 400,271.18644067796606"><g id="svgg"><path id="path0" d="M219.700 19.636 C 210.324 24.003,201.130 33.874,201.130 39.576 C 201.130 40.262,199.605 42.107,197.740 43.676 C 195.876 45.245,194.350 47.046,194.350 47.678 C 194.350 48.310,193.111 49.802,191.595 50.994 C 181.627 58.836,179.482 80.421,187.642 90.794 L 190.013 93.809 193.120 91.597 C 197.793 88.269,201.335 91.840,199.645 98.174 C 198.535 102.331,198.313 102.474,188.240 105.520 C 182.589 107.229,175.272 109.679,171.978 110.965 C 166.246 113.202,165.747 113.223,160.267 111.453 C 157.119 110.436,152.313 109.605,149.588 109.605 L 144.633 109.605 144.633 104.474 C 144.633 101.059,145.414 98.286,146.971 96.181 C 156.767 82.930,148.469 65.919,131.070 63.585 C 126.942 63.031,126.367 62.507,123.846 57.000 C 112.421 32.045,78.544 25.887,57.839 45.002 C 54.479 48.104,51.380 49.744,47.049 50.714 C 37.017 52.959,27.226 63.463,27.143 72.069 C 27.130 73.487,26.342 74.945,25.394 75.309 C 18.984 77.769,15.998 93.187,20.502 100.565 C 23.756 105.894,23.123 194.987,19.660 219.058 C 17.895 231.328,17.848 233.382,19.277 235.911 C 22.840 242.219,45.429 250.891,62.994 252.694 C 66.879 253.093,70.056 253.858,70.056 254.393 C 70.056 254.929,76.158 255.367,83.616 255.367 C 91.902 255.367,97.175 254.928,97.175 254.237 C 97.175 253.616,99.082 253.103,101.412 253.097 C 113.673 253.067,139.869 244.623,146.045 238.710 C 149.791 235.124,150.221 227.250,147.458 212.811 C 146.526 207.940,145.763 203.605,145.763 203.178 C 145.763 202.751,148.985 200.815,152.924 198.876 C 165.677 192.598,175.260 183.238,180.507 171.936 C 182.937 166.701,183.625 166.014,185.721 166.729 C 187.049 167.182,193.097 167.686,199.160 167.849 L 210.184 168.145 218.369 176.472 C 222.871 181.052,230.240 187.213,234.746 190.163 L 242.938 195.528 242.938 201.016 C 242.938 207.517,242.706 207.731,231.200 211.845 C 212.173 218.649,207.694 230.312,226.206 224.851 C 231.982 223.146,238.707 222.258,248.588 221.894 C 267.392 221.202,270.056 220.739,270.056 218.166 C 270.056 215.474,268.357 214.174,262.147 212.118 C 256.882 210.375,254.285 207.223,254.254 202.542 C 254.245 201.144,254.364 200.009,254.520 200.019 C 254.675 200.030,258.616 201.038,263.277 202.260 C 267.938 203.482,273.404 204.490,275.424 204.500 L 279.096 204.520 279.096 211.838 C 279.096 219.998,277.820 221.600,270.056 223.184 C 244.623 228.375,244.026 238.398,269.376 234.614 C 276.276 233.585,287.611 232.748,294.566 232.755 C 301.867 232.763,307.509 232.287,307.916 231.628 C 309.599 228.904,307.000 226.023,300.790 223.730 C 292.807 220.782,291.525 219.145,291.525 211.898 L 291.525 206.149 301.509 204.790 C 312.567 203.284,320.244 204.353,332.203 209.063 C 347.592 215.125,369.528 212.085,379.040 202.573 C 385.039 196.574,382.566 192.939,368.923 187.702 C 347.188 179.360,333.750 166.944,326.588 148.588 C 318.984 129.095,306.776 106.160,296.331 91.740 C 293.457 87.773,292.906 85.792,292.287 77.190 C 290.353 50.320,278.191 29.085,259.736 20.354 C 249.841 15.673,229.013 15.300,219.700 19.636 M255.449 28.818 C 270.344 36.275,282.410 57.718,282.468 76.836 L 282.483 81.921 273.807 85.822 C 253.706 94.860,244.575 108.533,244.718 129.379 C 244.897 155.388,257.382 172.874,288.538 190.753 C 297.930 196.142,297.031 197.147,283.803 196.049 C 230.711 191.644,198.488 152.928,207.825 104.761 C 209.193 97.702,209.609 96.968,213.055 95.528 C 218.500 93.253,220.576 88.311,221.621 75.141 C 222.113 68.927,222.844 61.663,223.245 59.001 C 223.973 54.165,216.959 44.527,211.433 42.770 C 209.089 42.025,212.501 36.069,217.773 31.703 C 226.949 24.103,243.500 22.836,255.449 28.818 M97.253 44.743 C 105.510 47.172,112.780 54.620,116.551 64.513 C 118.819 70.465,119.803 71.804,122.084 72.049 C 133.087 73.229,134.993 73.802,138.037 76.846 C 150.905 89.715,132.352 100.574,94.046 102.595 C 74.424 103.630,73.242 104.170,64.842 115.942 C 58.851 124.337,58.272 124.395,53.672 117.046 C 46.464 105.531,43.514 102.328,38.372 100.437 C 25.588 95.735,23.692 83.259,35.207 79.604 C 36.865 79.078,37.288 77.789,37.288 73.259 C 37.288 64.863,45.294 58.757,56.303 58.757 C 57.510 58.757,59.311 57.516,60.305 55.998 C 66.871 45.976,83.856 40.802,97.253 44.743 M236.723 46.503 C 229.711 50.338,229.534 60.416,236.417 63.976 C 246.394 69.135,254.900 55.409,246.241 48.123 C 242.479 44.958,240.243 44.577,236.723 46.503 M213.443 59.179 C 216.796 62.771,216.815 62.745,202.767 73.491 C 190.782 82.658,190.416 82.663,190.476 73.653 C 190.526 66.166,193.546 59.455,198.891 54.958 L 202.402 52.004 206.568 54.141 C 208.860 55.316,211.953 57.583,213.443 59.179 M212.088 81.982 C 210.842 86.938,210.369 87.535,207.908 87.256 C 202.560 86.649,202.560 84.821,207.908 80.243 C 213.986 75.041,213.847 74.984,212.088 81.982 M291.934 102.542 C 311.240 131.636,326.641 169.254,326.978 188.136 L 327.119 196.045 323.164 195.725 C 311.913 194.814,311.634 194.558,304.755 178.812 C 291.493 148.455,293.210 151.337,289.210 152.731 C 284.452 154.390,284.230 155.613,287.392 162.773 C 288.887 166.157,291.675 172.609,293.589 177.110 L 297.067 185.294 291.737 182.593 C 257.148 165.066,242.812 124.208,263.967 103.446 C 267.241 100.233,282.145 91.525,284.370 91.525 C 284.509 91.525,287.913 96.483,291.934 102.542 M135.992 156.497 C 136.550 196.377,137.111 209.709,138.595 218.304 C 140.747 230.777,140.559 231.342,132.962 235.218 C 109.101 247.390,52.819 246.551,31.921 233.711 C 27.598 231.054,27.270 227.968,29.963 215.255 C 31.194 209.444,31.678 198.800,31.788 175.142 C 31.870 157.430,32.252 135.199,32.635 125.740 L 33.333 108.542 36.069 109.921 C 37.573 110.679,40.370 113.842,42.283 116.949 L 45.763 122.599 46.328 168.527 C 46.868 212.446,46.992 214.565,49.153 216.952 C 60.280 229.248,104.691 230.058,117.389 218.196 L 120.904 214.913 120.904 162.357 L 120.904 109.801 127.966 107.637 C 131.850 106.447,135.085 105.513,135.154 105.562 C 135.224 105.610,135.601 128.531,135.992 156.497 M196.610 122.082 C 196.610 131.280,199.149 144.721,202.256 151.969 C 204.812 157.931,204.387 158.342,196.550 157.496 C 186.707 156.434,185.311 155.549,185.311 150.366 C 185.311 141.035,181.254 128.260,176.611 122.971 C 175.136 121.292,175.213 120.945,177.307 119.824 C 178.602 119.131,179.661 118.780,179.661 119.044 C 179.661 119.308,182.839 118.369,186.723 116.957 C 196.997 113.222,196.610 113.022,196.610 122.082 M160.425 122.038 C 170.805 127.379,174.576 134.907,174.576 150.282 C 174.576 168.262,169.288 177.513,153.177 187.715 L 146.328 192.052 145.975 185.574 C 145.692 180.354,146.006 178.877,147.596 177.966 C 168.450 166.023,170.606 136.119,150.991 130.873 L 145.763 129.475 145.763 123.931 L 145.763 118.387 151.103 119.188 C 154.041 119.629,158.236 120.911,160.425 122.038 M106.019 127.593 C 106.493 130.773,104.352 133.333,101.218 133.333 C 97.867 133.333,96.045 131.251,96.045 127.421 C 96.045 121.241,105.095 121.396,106.019 127.593 M152.542 142.373 C 157.004 146.834,154.914 159.187,148.733 164.886 L 145.763 167.626 145.763 153.869 C 145.763 138.843,146.968 136.799,152.542 142.373 M93.534 144.132 C 98.467 147.587,95.684 157.062,89.737 157.062 C 83.809 157.062,80.950 149.456,85.259 145.146 C 88.491 141.914,90.089 141.719,93.534 144.132 M63.498 178.640 L 63.842 203.608 67.112 206.214 C 71.981 210.093,69.720 213.964,63.892 211.727 C 58.282 209.575,55.454 153.672,60.956 153.672 C 63.057 153.672,63.170 154.775,63.498 178.640 M105.963 167.861 C 108.899 169.917,109.354 175.265,106.776 177.404 C 102.480 180.969,96.045 177.827,96.045 172.164 C 96.045 169.727,99.761 166.102,102.260 166.102 C 102.916 166.102,104.582 166.893,105.963 167.861 " stroke="none" fill="#000000" fill-rule="evenodd"></path></g></svg>